# xmcd
# 
# Track frame offsets:
#     182
#     15805
#     36957
#     67580
#     83590
#     96180
#     112857
#     129622
#     154312
# 
# Disc length: 2555
# 
# Revision: 31
# Processed by: cddbd v1.5.2PL0 Copyright (c) Steve Scherf et al.
# Submitted via: fre:ac v1.1beta1pre4
# 
DISCID=5c09f909
DTITLE=Prince - Around The World In A Day
DYEAR=1985
DGENRE=Rock
TTITLE0=Around The World In A Day
TTITLE1=Paisley Park
TTITLE2=Condition Of The Heart
TTITLE3=Raspberry Beret
TTITLE4=Tamborine
TTITLE5=America
TTITLE6=Pop Life
TTITLE7=The Ladder
TTITLE8=Temptation
EXTD=
EXTT0=
EXTT1=
EXTT2=
EXTT3=
EXTT4=
EXTT5=
EXTT6=
EXTT7=
EXTT8=
PLAYORDER=
